<svg width="40" height="41" viewBox="0 0 40 41" fill="none" xmlns="http://www.w3.org/2000/svg">
<g clip-path="url(#clip0_383_3516)">
<path fill-rule="evenodd" clip-rule="evenodd" d="M19.7139 2.19392C17.9303 2.19392 16.4844 3.6398 16.4844 5.42339V18.9062C16.4844 20.6898 17.9303 22.1357 19.7139 22.1357H20.2859C22.0695 22.1357 23.5154 20.6898 23.5154 18.9062V5.42339C23.5154 3.6398 22.0695 2.19392 20.2859 2.19392H19.7139ZM14.7905 5.42339C14.7905 2.70428 16.9948 0.5 19.7139 0.5H20.2859C23.005 0.5 25.2093 2.70428 25.2093 5.42339V18.9062C25.2093 21.6253 23.005 23.8296 20.2859 23.8296H19.7139C16.9948 23.8296 14.7905 21.6253 14.7905 18.9062V5.42339Z" fill="#BCBEC0"/>
<path fill-rule="evenodd" clip-rule="evenodd" d="M15.6375 14.981C16.1053 14.981 16.4844 15.3602 16.4844 15.8279V18.9062C16.4844 20.6898 17.9303 22.1357 19.7139 22.1357H20.2859C20.7537 22.1357 21.1329 22.5149 21.1329 22.9826C21.1329 23.4504 20.7537 23.8296 20.2859 23.8296H19.7139C16.9948 23.8296 14.7905 21.6253 14.7905 18.9062V15.8279C14.7905 15.3602 15.1697 14.981 15.6375 14.981Z" fill="#22ABAA"/>
<path fill-rule="evenodd" clip-rule="evenodd" d="M19.7138 2.19392C18.8218 2.19392 18.0156 2.55447 17.4302 3.13981C17.0995 3.47057 16.5632 3.47057 16.2324 3.13981C15.9017 2.80906 15.9017 2.27279 16.2324 1.94203C17.1225 1.052 18.3545 0.5 19.7138 0.5H20.2858C21.6451 0.5 22.8771 1.052 23.7672 1.94203C24.6572 2.83206 25.2092 4.06407 25.2092 5.42339V7.36232C25.2092 7.83008 24.83 8.20928 24.3622 8.20928C23.8945 8.20928 23.5153 7.83008 23.5153 7.36232V5.42339C23.5153 4.53137 23.1547 3.72516 22.5694 3.13981C21.984 2.55447 21.1778 2.19392 20.2858 2.19392H19.7138Z" fill="#EF4168"/>
<path fill-rule="evenodd" clip-rule="evenodd" d="M25.0783 27.82H24.5684V39.3365H25.0783V37.099L26.8388 35.2729L30.0798 39.3365H30.705L27.1678 34.9272L30.4582 31.4724H29.8331L25.0783 36.4902V27.82ZM1.57941 31.4724V29.0374H2.07294V31.4724H4.83695V31.8836H2.07294V36.6218C2.07294 38.6292 2.79685 39.0403 3.88274 39.0403C4.35985 39.0403 4.6395 38.9746 5.00148 38.8595L5.1002 39.2872C4.52437 39.4681 4.21177 39.5011 3.75109 39.5011C2.40207 39.5011 1.57943 38.7443 1.57943 36.8687V31.8836H0V31.4724H1.57941ZM5.91194 31.4724H5.91196V39.3364H6.422V35.207C6.58651 33.0518 7.70523 31.8507 9.43272 31.9002V31.423C8.03434 31.3901 6.88267 32.2292 6.38905 33.6935L6.3562 31.4724H5.91196V31.4724L5.91194 31.4724ZM13.0411 34.697C10.8859 34.697 9.63551 35.5032 9.63551 37.1649V37.1649C9.63551 38.662 10.7049 39.5011 12.3502 39.5011C15.8564 39.5011 16.1177 36.6388 16.1177 34.4008C16.1177 32.1628 15.1305 31.3078 13.0576 31.3078C11.6756 31.3078 10.6391 31.7027 10.0468 32.5747L10.3594 32.8873C10.8694 32.1633 11.6427 31.7356 13.0246 31.7356C14.7851 31.7356 15.6241 32.3772 15.6241 34.4995V34.697H13.0411ZM15.6241 35.1083V35.7663V35.7663C15.4596 37.8065 14.4067 39.0733 12.4817 39.0733C10.9846 39.0733 10.1455 38.3987 10.1455 37.1483C10.1455 35.7335 11.1985 35.1083 13.0905 35.1083H15.6241ZM16.9547 35.4373C16.9547 32.6239 18.2215 31.3078 20.6072 31.3078C22.1207 31.3078 23.0914 31.8836 23.6508 32.9037L23.256 33.167C22.7788 32.1962 21.8246 31.7356 20.6072 31.7356C18.5177 31.7356 17.4648 32.8214 17.4648 35.4373C17.4648 37.9709 18.5177 39.0733 20.5907 39.0733C21.9891 39.0733 22.8776 38.5633 23.3547 37.4116L23.7495 37.6255C23.223 38.9251 22.1372 39.501 20.5907 39.501C18.2215 39.501 16.9547 38.1848 16.9547 35.4373ZM32.3108 39.3365H31.8007V27.82H32.3108V39.3365ZM36.5943 36.1119C38.7496 36.1119 40 35.3057 40 33.644C40 32.1469 38.9306 31.3078 37.2853 31.3078C33.7791 31.3078 33.5178 34.1701 33.5178 36.4081C33.5178 38.6461 34.505 39.5011 36.5779 39.5011C37.9599 39.5011 38.9964 39.1062 39.5886 38.2342L39.276 37.9216C38.7661 38.6456 37.9928 39.0733 36.6108 39.0733C34.8504 39.0733 34.0114 38.4317 34.0114 36.3094V36.1119H36.5943ZM34.0114 35.7006V35.0426C34.1759 33.0024 35.2288 31.7356 37.1538 31.7356C38.6509 31.7356 39.4899 32.4102 39.4899 33.6606C39.4899 35.0754 38.437 35.7006 36.545 35.7006H34.0114Z" fill="#231F20"/>
</g>
<defs>
<clipPath id="clip0_383_3516">
<rect width="40" height="40" fill="white" transform="translate(0 0.5)"/>
</clipPath>
</defs>
</svg>
